<svg xmlns="http://www.w3.org/2000/svg" xmlns:xlink="http://www.w3.org/1999/xlink" width="500" zoomAndPan="magnify" viewBox="0 0 375 374.999991" height="500" preserveAspectRatio="xMidYMid meet" version="1.0"><defs><clipPath id="8536908709"><path d="M 59.089844 59.089844 L 315.589844 59.089844 L 315.589844 315.589844 L 59.089844 315.589844 Z M 59.089844 59.089844 " clip-rule="nonzero"/></clipPath></defs><g clip-path="url(#8536908709)"><path fill="#f93854" d="M 315.570312 216.925781 C 315.570312 271.410156 271.402344 315.570312 216.917969 315.570312 C 162.441406 315.570312 118.277344 271.402344 118.277344 216.925781 L 118.28125 216.925781 C 118.269531 184.234375 91.773438 118.785156 59.089844 118.785156 L 59.089844 118.304688 C 113.574219 118.304688 157.738281 162.464844 157.738281 216.945312 L 157.734375 216.945312 C 157.746094 249.621094 184.238281 276.109375 216.917969 276.109375 C 249.613281 276.109375 276.109375 249.613281 276.109375 216.925781 C 276.109375 184.238281 249.613281 157.738281 216.925781 157.738281 L 216.925781 157.734375 C 162.441406 157.730469 118.28125 113.570312 118.28125 59.089844 L 118.761719 59.089844 C 118.761719 91.777344 184.234375 118.277344 216.925781 118.277344 L 216.925781 118.28125 C 271.410156 118.28125 315.570312 162.445312 315.570312 216.925781 Z M 315.570312 216.925781 " fill-opacity="1" fill-rule="nonzero"/></g></svg>